<svg width="512" height="512" xmlns="http://www.w3.org/2000/svg">

 <g>
  <title>background</title>
  <rect fill="none" id="canvas_background" height="402" width="582" y="-1" x="-1"/>
 </g>
 <g>
  <title>Layer 1</title>
  <path id="svg_3" fill="#00cdf9" d="m442.871,82.934l-14.36,0l-0.015,0l-172.493,136.586l-172.505,-136.586l-2.726,0l-11.647,0c-23.803,0 -43.124,19.37 -43.124,43.241l0,259.446c0,23.867 19.321,43.24 43.124,43.24l13.939,0l0.434,0l0,-269.651l172.505,133.038l172.493,-133.07l0,254.388l0,15.295l14.375,0c23.806,0 43.128,-19.373 43.128,-43.24l0,-259.446c0,-23.87 -19.319,-43.241 -43.128,-43.241z"/>
  <polygon id="svg_4" fill="#F2F2F2" points="428.496,82.934 83.498,82.934 256.003,219.52   "/>
  <polygon id="svg_5" fill="#F2F2F2" points="256.003,292.248 83.498,159.21 83.498,428.861 83.064,428.861 83.064,429.066     428.397,429.066 428.397,413.566 428.496,413.566 428.496,159.178   "/>
 </g>
</svg>